<svg xmlns="http://www.w3.org/2000/svg" xmlns:xlink="http://www.w3.org/1999/xlink" version="1.1" width="1000" height="1000" viewBox="0 0 1000 1000" xml:space="preserve">
<desc>Created with Fabric.js 3.5.0</desc>
<defs>
</defs>
<rect x="0" y="0" width="100%" height="100%" fill="#ffffff"/>
<g transform="matrix(28.2697 0 0 28.2697 462.297 500.0006)" id="967243">
<g style="" vector-effect="non-scaling-stroke">
		<g transform="matrix(1 0 0 1 0 0)" id="Layer_1">
<circle style="stroke: none; stroke-width: 1; stroke-dasharray: none; stroke-linecap: butt; stroke-dashoffset: 0; stroke-linejoin: miter; stroke-miterlimit: 4; is-custom-font: none; font-file-url: none; fill: rgb(10,193,142); fill-rule: evenodd; opacity: 1;" cx="0" cy="0" r="16"/>
</g>
		<g transform="matrix(1 0 0 1 -0.0084 0.05)" id="Layer_1">
<path style="stroke: none; stroke-width: 1; stroke-dasharray: none; stroke-linecap: butt; stroke-dashoffset: 0; stroke-linejoin: miter; stroke-miterlimit: 4; is-custom-font: none; font-file-url: none; fill: rgb(255,255,255); fill-rule: nonzero; opacity: 1;" transform=" translate(-15.9916, -16.05)" d="M 21.2 10.5 c -0.8 -2 -2.7 -2.1 -5 -1.7 L 15.4 6 l -1.7 0.5 l 0.8 2.7 c -0.4 0.1 -0.9 0.3 -1.4 0.4 l -0.8 -2.8 l -1.7 0.5 l 0.8 2.8 c -0.4 0.1 -0.7 0.2 -1.1 0.3 l 0 0 L 8 11.2 L 8.5 13 c 0 0 1.3 -0.4 1.2 -0.4 c 0.7 -0.2 1 0.1 1.2 0.5 l 0.9 3.2 c 0 0 0.1 0 0.2 0 l -0.2 0.1 l 1.3 4.5 c 0 0.2 0 0.6 -0.5 0.8 c 0 0 -1.2 0.4 -1.2 0.4 l 0.2 2.1 l 2.2 -0.6 c 0.4 -0.1 0.8 -0.2 1.2 -0.3 l 0.8 2.8 l 1.7 -0.5 l -0.8 -2.8 c 0.5 -0.1 0.9 -0.2 1.4 -0.4 l 0.8 2.8 l 1.7 -0.5 l -0.8 -2.8 c 2.8 -1 4.6 -2.3 4.1 -5.1 c -0.4 -2.2 -1.7 -2.9 -3.5 -2.8 C 21.4 13 21.8 12 21.2 10.5 L 21.2 10.5 z M 20.6 17.3 c 0.6 2.1 -3.1 2.9 -4.3 3.3 l -1.1 -3.8 C 16.4 16.5 19.9 15.1 20.6 17.3 L 20.6 17.3 z M 18.2 12.2 c 0.6 1.9 -2.5 2.6 -3.5 2.9 l -1 -3.4 C 14.7 11.4 17.7 10.2 18.2 12.2 L 18.2 12.2 z" stroke-linecap="round"/>
</g>
</g>
</g>
<g transform="matrix(0.7628 0 0 0.7628 792.0771 754.3735)" id="744506">
<g style="" vector-effect="non-scaling-stroke">
		<g transform="matrix(1 0 0 1 0 0)" id="Oval">
<radialGradient id="SVGID_5" gradientUnits="objectBoundingBox" gradientTransform="matrix(1 0 0 1 0 0)" cx="0.5" cy="0.154048688" r="0.921961326" fx="0.5" fy="0.154048688">
<stop offset="0%" style="stop-color:rgb(255,136,0);stop-opacity: 1"/>
<stop offset="100%" style="stop-color:rgb(255,136,0);stop-opacity: 1"/>
</radialGradient>
<circle style="stroke: none; stroke-width: 1; stroke-dasharray: none; stroke-linecap: butt; stroke-dashoffset: 0; stroke-linejoin: miter; stroke-miterlimit: 4; is-custom-font: none; font-file-url: none; fill: url(#SVGID_5); fill-rule: evenodd; opacity: 1;" cx="0" cy="0" r="259.5"/>
</g>
		<g transform="matrix(1 0 0 1 10.5 -21.5)" id="Shape">
<path style="stroke: none; stroke-width: 1; stroke-dasharray: none; stroke-linecap: butt; stroke-dashoffset: 0; stroke-linejoin: miter; stroke-miterlimit: 4; is-custom-font: none; font-file-url: none; fill: rgb(255,255,255); fill-rule: evenodd; opacity: 1;" transform=" translate(-270, -238)" d="M 253.086529 106.80608 C 251.763557 107.440317 250.935533 108.79148 250.971012 110.258195 C 251.485754 131.548955 251.743125 143.889925 251.743125 147.281104 L 251.743125 156.873365 L 250.138208 160.230657 C 248.335702 164.000895 247.404908 165.564913 234.202837 187.013209 C 229.03262 195.412672 222.19937 206.923385 219.017623 212.592891 C 215.225611 219.3501 213.240732 226.971215 213.254816 234.719701 L 213.44295 338.230328 C 213.466007 350.916534 223.756684 361.188525 236.442912 361.188525 L 349.642136 361.188525 L 349.642136 361.188525 L 353.768721 359.163598 C 363.035014 354.615428 369.838723 344.033245 369.88812 334.090387 C 369.907491 330.256361 369.784967 329.759481 367.839113 325.747998 C 366.701046 323.40221 365.829334 321.447308 365.901977 321.404142 C 365.974619 321.360977 368.110797 320.410864 370.64893 319.292886 C 381.553072 314.488602 387.969837 306.853162 388.434266 298.129001 C 388.679798 293.522797 387.601297 290.340085 383.958996 284.918539 C 382.490646 282.732942 381.289137 280.816409 381.289137 280.659095 C 381.289137 280.502262 381.644602 280.373726 382.079005 280.373726 C 382.513892 280.373726 384.638446 279.457185 386.800775 278.336809 C 396.678235 273.219817 402.333221 263.507174 400.73024 254.412271 C 399.662394 248.35284 396.469993 243.535127 389.377651 237.278095 L 387.054056 235.228229 L 389.724399 232.371654 C 393.168628 228.687266 395.258798 225.655152 396.631259 222.352057 C 397.532996 220.180849 397.733974 218.790451 397.743176 214.647553 C 397.761094 206.747847 395.934859 201.452919 391.612623 196.876931 C 388.717572 193.811724 385.487881 191.817013 380.923018 190.274577 L 377.172722 189.00744 C 325.678142 188.722869 299.931336 188.517595 299.932305 188.391617 C 299.934242 188.202649 300.368645 184.487087 300.897967 180.134598 C 302.11013 170.168239 302.24234 151.978435 301.150279 145.362652 C 298.040691 126.523931 288.02182 111.768156 274.839121 106.610877 C 271.53824 105.319759 270.453444 105.138465 265.303082 105.020001 C 262.106806 104.94614 258.539569 105.083309 257.376319 105.325034 C 256.212584 105.56628 254.282227 106.232942 253.086529 106.80608 Z M 146 218.377049 L 189.858333 218.377049 C 193.724327 218.377049 196.858333 221.511056 196.858333 225.377049 L 196.858333 364 C 196.858333 367.865993 193.724327 371 189.858333 371 L 146 371 C 142.134007 371 139 367.865993 139 364 L 139 225.377049 C 139 221.511056 142.134007 218.377049 146 218.377049 Z" stroke-linecap="round"/>
</g>
</g>
</g>
</svg>